<svg width="44" height="44" viewBox="0 0 44 44" fill="none" xmlns="http://www.w3.org/2000/svg">
<path d="M18.333 33.6553C18.333 33.7466 18.2981 33.8348 18.2354 33.8994C18.1726 33.9639 18.0868 34 17.998 34H10.335C10.2461 34 10.1605 33.964 10.0977 33.8994C10.0349 33.8348 10 33.7466 10 33.6553V22.3447C10 22.2534 10.0349 22.1652 10.0977 22.1006C10.1605 22.036 10.2462 22 10.335 22H18.333V33.6553ZM34.6592 10C34.7208 10 34.7821 10.0169 34.835 10.0488C34.8876 10.0808 34.9309 10.1269 34.96 10.1816C34.9891 10.2366 35.003 10.299 35 10.3613C34.997 10.4236 34.9766 10.4843 34.9424 10.5361L28.5615 20.208C28.5286 20.2577 28.4836 20.2985 28.4307 20.3252L25.1182 21.999L28.4307 23.6729C28.4836 23.7004 28.5287 23.7417 28.5615 23.792L34.9424 33.4639C34.9766 33.5157 34.997 33.5764 35 33.6387C35.003 33.701 34.9891 33.7634 34.96 33.8184C34.9309 33.8731 34.8876 33.9192 34.835 33.9512C34.7821 33.9831 34.7208 34 34.6592 34H25.5137C25.3936 34 25.2747 33.9681 25.1709 33.9072C25.0673 33.8464 24.9814 33.7584 24.9219 33.6533L18.333 21.999L24.9219 10.3467C24.9814 10.2416 25.0673 10.1536 25.1709 10.0928C25.2747 10.0319 25.3936 10 25.5137 10H34.6592ZM14.167 10C16.468 10.0002 18.333 11.791 18.333 14C18.333 16.209 16.468 17.9998 14.167 18C11.8658 18 10 16.2091 10 14C10 11.7909 11.8658 10 14.167 10Z" fill="#1C1647"/>
</svg>
